<?xml version="1.0" encoding="UTF-8" standalone="no"?>
<!DOCTYPE svg PUBLIC "-//W3C//DTD SVG 1.1//EN" "http://www.w3.org/Graphics/SVG/1.1/DTD/svg11.dtd">
<svg width="100%" height="100%" viewBox="0 0 1000 140" version="1.1" xmlns="http://www.w3.org/2000/svg" xmlns:xlink="http://www.w3.org/1999/xlink" xml:space="preserve" xmlns:serif="http://www.serif.com/" style="fill-rule:evenodd;clip-rule:evenodd;stroke-linejoin:round;stroke-miterlimit:2;">
    <g transform="matrix(1.02696,0,0,1.02696,-11.6526,1.79136)">
        <g transform="matrix(1.52938,0,0,1.52938,-239.277,-2.78542)">
            <g transform="matrix(50,0,0,50,229.603,62.0578)">
                <path d="M0.06,-0.698L0.06,0L0.827,0L0.827,-0.173L0.298,-0.173L0.298,-0.698L0.06,-0.698Z" style="fill-rule:nonzero;"/>
            </g>
            <g transform="matrix(50,0,0,50,271.703,62.0578)">
                <path d="M0.06,-0.7L0.06,-0L2.33,-0L2.33,-0.163L0.296,-0.163L0.296,-0.278L2.306,-0.278L2.306,-0.437L0.296,-0.437L0.296,-0.541L2.319,-0.541L2.319,-0.7L0.06,-0.7Z" style="fill-rule:nonzero;"/>
            </g>
            <g transform="matrix(50,0,0,50,390.703,62.0578)">
                <path d="M0.566,-0.71C0.5,-0.71 0.44,-0.706 0.385,-0.698C0.33,-0.689 0.285,-0.678 0.248,-0.664C0.212,-0.65 0.18,-0.634 0.153,-0.614C0.125,-0.593 0.104,-0.573 0.089,-0.553C0.073,-0.533 0.061,-0.511 0.052,-0.487C0.043,-0.463 0.037,-0.442 0.034,-0.423C0.031,-0.405 0.03,-0.385 0.03,-0.365L0.03,-0.337C0.03,-0.317 0.031,-0.297 0.034,-0.278C0.037,-0.26 0.043,-0.238 0.052,-0.214C0.061,-0.19 0.073,-0.168 0.089,-0.148C0.104,-0.127 0.126,-0.107 0.153,-0.086C0.181,-0.066 0.213,-0.049 0.249,-0.035C0.285,-0.021 0.33,-0.009 0.385,-0.001C0.44,0.008 0.5,0.013 0.566,0.013L0.599,0.013C0.665,0.013 0.725,0.008 0.779,-0.001C0.833,-0.009 0.879,-0.021 0.915,-0.035C0.951,-0.049 0.983,-0.066 1.01,-0.086C1.038,-0.107 1.059,-0.127 1.074,-0.148C1.089,-0.168 1.102,-0.19 1.111,-0.214C1.121,-0.238 1.127,-0.26 1.13,-0.278C1.132,-0.297 1.134,-0.317 1.134,-0.337L1.134,-0.365C1.134,-0.385 1.132,-0.405 1.13,-0.424C1.127,-0.443 1.121,-0.464 1.111,-0.488C1.102,-0.512 1.089,-0.533 1.074,-0.553C1.058,-0.573 1.037,-0.593 1.01,-0.614C0.983,-0.634 0.951,-0.65 0.914,-0.664C0.878,-0.678 0.833,-0.689 0.779,-0.698C0.725,-0.706 0.665,-0.71 0.599,-0.71L0.566,-0.71ZM0.884,-0.345C0.884,-0.323 0.88,-0.301 0.871,-0.281C0.863,-0.261 0.848,-0.241 0.827,-0.222C0.806,-0.202 0.774,-0.186 0.731,-0.175C0.694,-0.165 0.649,-0.159 0.598,-0.158C0.591,-0.157 0.578,-0.157 0.574,-0.157C0.518,-0.158 0.471,-0.164 0.431,-0.175C0.388,-0.187 0.356,-0.203 0.336,-0.223C0.315,-0.243 0.301,-0.263 0.292,-0.283C0.284,-0.303 0.28,-0.324 0.28,-0.347L0.28,-0.358C0.28,-0.477 0.376,-0.538 0.57,-0.541C0.576,-0.541 0.593,-0.541 0.602,-0.541C0.641,-0.54 0.676,-0.536 0.707,-0.53C0.744,-0.522 0.774,-0.512 0.796,-0.5C0.818,-0.488 0.836,-0.474 0.849,-0.457C0.863,-0.44 0.872,-0.424 0.877,-0.408C0.882,-0.392 0.884,-0.376 0.884,-0.358L0.884,-0.345Z" style="fill-rule:nonzero;"/>
            </g>
            <g transform="matrix(50,0,0,50,449.003,62.0578)">
                <path d="M0.541,0.012L0.583,0.012C0.666,0.012 0.739,0.004 0.803,-0.01C0.867,-0.024 0.916,-0.042 0.952,-0.063C0.988,-0.083 1.017,-0.107 1.039,-0.135C1.062,-0.162 1.077,-0.187 1.084,-0.208C1.091,-0.23 1.095,-0.252 1.095,-0.272L1.095,-0.283L0.841,-0.283C0.841,-0.282 0.841,-0.281 0.84,-0.28C0.812,-0.199 0.72,-0.159 0.563,-0.159C0.511,-0.159 0.465,-0.165 0.426,-0.177C0.387,-0.188 0.357,-0.204 0.338,-0.224C0.318,-0.244 0.303,-0.264 0.294,-0.285C0.285,-0.306 0.28,-0.328 0.28,-0.351L0.28,-0.362C0.28,-0.386 0.284,-0.408 0.293,-0.428C0.301,-0.448 0.315,-0.467 0.334,-0.485C0.354,-0.503 0.383,-0.518 0.421,-0.528C0.46,-0.538 0.507,-0.543 0.561,-0.543C0.607,-0.543 0.648,-0.54 0.683,-0.533C0.718,-0.525 0.745,-0.517 0.763,-0.509C0.781,-0.5 0.796,-0.489 0.809,-0.476C0.822,-0.463 0.829,-0.453 0.833,-0.447C0.836,-0.441 0.838,-0.434 0.84,-0.427L1.094,-0.427L1.094,-0.437C1.094,-0.457 1.09,-0.477 1.084,-0.498C1.077,-0.519 1.063,-0.543 1.041,-0.569C1.019,-0.596 0.99,-0.619 0.955,-0.64C0.919,-0.66 0.87,-0.678 0.805,-0.692C0.741,-0.706 0.667,-0.713 0.583,-0.713L0.541,-0.713C0.455,-0.713 0.379,-0.705 0.315,-0.688C0.25,-0.672 0.2,-0.652 0.165,-0.628C0.13,-0.604 0.102,-0.576 0.081,-0.543C0.059,-0.509 0.045,-0.479 0.039,-0.452C0.033,-0.425 0.03,-0.397 0.03,-0.367L0.03,-0.339C0.03,-0.32 0.031,-0.3 0.035,-0.281C0.038,-0.262 0.044,-0.24 0.054,-0.216C0.064,-0.192 0.076,-0.17 0.091,-0.149C0.107,-0.129 0.127,-0.108 0.154,-0.088C0.181,-0.067 0.211,-0.05 0.246,-0.036C0.28,-0.022 0.323,-0.01 0.374,-0.002C0.424,0.007 0.48,0.012 0.541,0.012L0.541,0.012Z" style="fill-rule:nonzero;"/>
            </g>
            <g transform="matrix(50,0,0,50,503.303,62.0578)">
                <path d="M1.003,-0.001L1.26,-0.001L0.852,-0.701L0.384,-0.701L-0.002,-0.001L0.241,-0.001L0.31,-0.129L0.931,-0.129L1.003,-0.001ZM0.701,-0.539L0.843,-0.287L0.395,-0.287L0.531,-0.539L0.701,-0.539Z" style="fill-rule:nonzero;"/>
            </g>
            <g transform="matrix(50,0,0,50,566.353,62.0578)">
                <path d="M0.298,-0.248L1.926,-0.248C1.984,-0.248 2.025,-0.238 2.049,-0.219C2.073,-0.199 2.085,-0.168 2.085,-0.125L2.085,-0.044C2.085,-0.023 2.085,-0 2.085,-0L2.324,-0C2.324,-0 2.324,-0.048 2.324,-0.09L2.324,-0.192C2.324,-0.235 2.311,-0.27 2.284,-0.296C2.258,-0.323 2.223,-0.342 2.18,-0.353C2.274,-0.381 2.321,-0.432 2.321,-0.506L2.321,-0.517C2.321,-0.638 2.211,-0.698 1.991,-0.698L0.06,-0.698L0.06,0L0.298,0L0.298,-0.248ZM0.298,-0.54L1.976,-0.54C2.009,-0.54 2.033,-0.533 2.049,-0.521C2.065,-0.508 2.073,-0.492 2.073,-0.472L2.073,-0.471C2.073,-0.451 2.065,-0.434 2.049,-0.421C2.033,-0.409 2.009,-0.403 1.976,-0.403L0.298,-0.403L0.298,-0.54Z" style="fill-rule:nonzero;"/>
            </g>
            <g transform="matrix(50,0,0,50,685.103,62.0578)">
                <rect x="0.059" y="-0.697" width="0.238" height="0.697" style="fill-rule:nonzero;"/>
            </g>
            <g transform="matrix(50,0,0,50,702.953,62.0578)">
                <path d="M0.548,-0.7C0.484,-0.7 0.426,-0.696 0.373,-0.687C0.32,-0.679 0.276,-0.668 0.24,-0.655C0.205,-0.642 0.174,-0.625 0.148,-0.606C0.121,-0.587 0.101,-0.567 0.086,-0.548C0.071,-0.529 0.059,-0.507 0.05,-0.484C0.041,-0.461 0.036,-0.44 0.033,-0.422C0.03,-0.404 0.029,-0.385 0.029,-0.365L0.029,-0.338C0.029,-0.319 0.03,-0.3 0.033,-0.282C0.036,-0.264 0.041,-0.243 0.05,-0.219C0.059,-0.196 0.071,-0.175 0.086,-0.155C0.101,-0.135 0.122,-0.116 0.148,-0.096C0.175,-0.076 0.206,-0.06 0.241,-0.046C0.276,-0.032 0.32,-0.021 0.373,-0.013C0.426,-0.004 0.484,0 0.548,0L1.393,0C1.457,0 1.515,-0.004 1.568,-0.013C1.62,-0.021 1.664,-0.032 1.699,-0.046C1.734,-0.06 1.765,-0.076 1.792,-0.096C1.819,-0.116 1.839,-0.135 1.854,-0.155C1.868,-0.175 1.88,-0.196 1.889,-0.219C1.899,-0.243 1.905,-0.264 1.907,-0.282C1.91,-0.3 1.911,-0.319 1.911,-0.338L1.911,-0.365C1.911,-0.385 1.91,-0.404 1.907,-0.423C1.905,-0.441 1.899,-0.461 1.889,-0.484C1.88,-0.507 1.868,-0.529 1.853,-0.548C1.838,-0.567 1.818,-0.587 1.791,-0.606C1.765,-0.625 1.734,-0.642 1.699,-0.655C1.663,-0.668 1.62,-0.679 1.567,-0.687C1.515,-0.696 1.457,-0.7 1.393,-0.7L0.548,-0.7ZM1.669,-0.359L1.669,-0.346C1.669,-0.324 1.665,-0.304 1.657,-0.284C1.649,-0.265 1.634,-0.246 1.614,-0.227C1.593,-0.208 1.563,-0.192 1.521,-0.181C1.485,-0.171 1.442,-0.166 1.393,-0.165C1.386,-0.165 0.56,-0.165 0.555,-0.165C0.502,-0.165 0.456,-0.171 0.417,-0.182C0.376,-0.193 0.345,-0.209 0.325,-0.228C0.305,-0.247 0.291,-0.267 0.283,-0.286C0.275,-0.306 0.271,-0.326 0.271,-0.348L0.271,-0.359C0.271,-0.474 0.364,-0.533 0.552,-0.536C0.557,-0.536 1.388,-0.536 1.396,-0.536C1.434,-0.535 1.468,-0.531 1.498,-0.525C1.534,-0.517 1.563,-0.508 1.584,-0.496C1.605,-0.485 1.623,-0.471 1.636,-0.454C1.649,-0.438 1.658,-0.422 1.662,-0.407C1.667,-0.392 1.669,-0.376 1.669,-0.359L1.669,-0.359Z" style="fill-rule:nonzero;"/>
            </g>
        </g>
        <g id="leocario_logo.svg" transform="matrix(0.406717,0,0,0.406717,55.1625,65.3502)">
            <g transform="matrix(1,0,0,1,-100,-100)">
                <clipPath id="_clip1">
                    <rect x="0" y="0" width="200" height="200"/>
                </clipPath>
                <g clip-path="url(#_clip1)">
                    <g>
                        <path d="M24.265,175.735L200,175.735L200,200L0,200L0,0L24.265,0L24.265,175.735Z"/>
                        <path d="M103.237,96.763L263.836,96.763L263.836,136.165L63.836,136.165L63.836,-63.835L103.237,-63.835L103.237,96.763Z"/>
                        <g transform="matrix(0.257525,0,0,0.257525,110.254,38.2412)">
                            <rect x="148.495" y="-148.495" width="200" height="200" style="fill:rgb(14,14,14);"/>
                        </g>
                    </g>
                </g>
            </g>
        </g>
    </g>
</svg>
